<svg id="Layer_1" data-name="Layer 1" xmlns="http://www.w3.org/2000/svg" viewBox="0 0 165 85"><defs><style>.cls-1{fill:#007db6;}.cls-2{fill:#00a3d8;}.cls-3{fill:#4abbdc;}.cls-4{fill:#636466;}</style></defs><title>Artboard 1</title><path class="cls-1" d="M25.9,44.75c0-.29-.1-.38-.38-.38H17.79c-.29,0-.38.09-.38.38V46c0,.31.1.41.38.41h2.69V56.92c0,.31.1.42.39.42h1.59c.28,0,.37-.1.37-.42V46.38h2.69c.28,0,.38-.11.38-.41Z"/><path class="cls-1" d="M32.41,50.49c0-1.86-1.18-2.76-3.6-2.76s-3.71.92-3.71,2.76v4.22c0,1.85,1.24,2.79,3.69,2.79s3.58-.89,3.58-2.79V54.5c0-.28-.11-.41-.38-.41H30.7c-.28,0-.38.12-.38.41v.1c0,.78-.47,1.14-1.51,1.14s-1.51-.36-1.51-1.14V53.1h4.78c.25,0,.33-.1.33-.37Zm-2.09,1.06h-3v-.93c0-.77.48-1.13,1.51-1.13s1.51.37,1.51,1.13Z"/><path class="cls-1" d="M35.72,51l0,0a4.4,4.4,0,0,1,2.69-1.15c.3,0,.41-.13.41-.43V48.11c0-.28-.11-.38-.4-.38A3.52,3.52,0,0,0,35.82,49l-.12.14-.07-.86c0-.31-.09-.39-.36-.39H33.85c-.29,0-.38.1-.38.39v8.65c0,.31.1.42.38.42h1.53c.26,0,.34-.11.34-.42Z"/><path class="cls-1" d="M41.84,51l0,0a4.4,4.4,0,0,1,2.69-1.15c.31,0,.41-.13.41-.43V48.11c0-.28-.11-.38-.4-.38A3.52,3.52,0,0,0,41.93,49l-.12.14-.07-.86c0-.31-.09-.39-.36-.39H40c-.29,0-.38.1-.38.39v8.65c0,.31.1.42.38.42h1.53c.26,0,.35-.11.35-.42Z"/><path class="cls-1" d="M52.94,50.43c0-1.82-1.18-2.7-3.62-2.7s-3.64.9-3.64,2.7v.25c0,.31.09.41.37.41h1.36c.27,0,.36-.1.36-.41v-.13c0-.77.44-1.08,1.49-1.08s1.46.34,1.46,1.15v1.31H48.11a2.4,2.4,0,0,0-2.69,2.36v.87A2.31,2.31,0,0,0,48,57.5a4,4,0,0,0,2.67-1l.11-.09,0,.55c0,.35.11.43.36.43h1.38c.27,0,.37-.11.37-.42Zm-2.22,4.34,0,0a3.46,3.46,0,0,1-2.07.85c-.67,0-1-.27-1-.83V54.5c0-.44.11-.94.95-.94h2.14Z"/><path class="cls-1" d="M64,55.72c0-.29-.1-.39-.39-.39H59.43V44.79c0-.32-.1-.42-.37-.42h-1.6c-.27,0-.37.1-.37.42V56.92c0,.37.15.42.32.42H63.6c.28,0,.39-.11.39-.41Z"/><path class="cls-1" d="M67.75,48.29c0-.32-.08-.41-.35-.41H65.88c-.29,0-.39.1-.39.41v8.63c0,.31.1.42.39.42H67.4c.26,0,.35-.11.35-.42Z"/><path class="cls-1" d="M65.49,46.09c0,.29.1.38.39.38H67.4c.27,0,.35-.09.35-.38V44.43c0-.32-.09-.43-.35-.43H65.88c-.29,0-.39.11-.39.43Z"/><path class="cls-1" d="M74.78,44.27c0-.29-.1-.39-.39-.39h-.17c-2.5,0-3.87,1-3.87,2.77v1.27h-.13l-.93.09c-.3,0-.38.12-.38.39v1c0,.3.09.41.37.41h1.07v7.14c0,.31.1.42.38.42h1.53c.28,0,.36-.1.36-.42V49.78h1.6c.28,0,.39-.11.39-.41V48.29c0-.28-.1-.37-.39-.37h-1.6v-1c0-.77.51-1.12,1.6-1.12h.17c.27,0,.39-.12.39-.43Z"/><path class="cls-1" d="M82.57,50.49c0-1.86-1.18-2.76-3.6-2.76s-3.72.92-3.72,2.76v4.22c0,1.85,1.25,2.79,3.7,2.79s3.58-.89,3.58-2.79V54.5c0-.28-.11-.41-.38-.41H80.86c-.28,0-.38.12-.38.41v.1c0,.78-.47,1.14-1.51,1.14s-1.51-.36-1.51-1.14V53.1h4.78c.25,0,.33-.1.33-.37Zm-2.09,1.06h-3v-.93c0-.77.48-1.13,1.51-1.13s1.51.37,1.51,1.13Z"/><path class="cls-2" d="M92.72,47.36c0-1-.61-1.64-2.23-1.64s-2.22.6-2.22,1.64v.39A1.25,1.25,0,0,0,89.21,49l3.34,1.33a2.76,2.76,0,0,1,2,2.63v1.6c0,1.58-1,3-4.11,3s-4.14-1.39-4.14-3V53.48c0-.27.11-.39.35-.39h1.08c.24,0,.33.12.33.39v.87c0,1,.7,1.64,2.36,1.64s2.37-.6,2.37-1.64v-.91c0-1-.83-1.29-1.55-1.58l-3.1-1.26a2.61,2.61,0,0,1-1.64-2.39v-1.1c0-1.58,1-3,4-3s4,1.39,4,3V48c0,.25-.09.37-.33.37H93.05c-.26,0-.33-.12-.33-.37Z"/><path class="cls-2" d="M102.93,50.33v.35c0,.27-.09.37-.33.37h-1c-.25,0-.35-.1-.35-.37v-.21c0-.81-.42-1.28-1.82-1.28s-1.8.47-1.8,1.28v4.32c0,.81.42,1.28,1.8,1.28s1.82-.47,1.82-1.28v-.38c0-.25.1-.37.35-.37h1c.24,0,.33.12.33.37v.52c0,1.58-.94,2.64-3.53,2.64s-3.51-1.06-3.51-2.64v-4.6c0-1.58.93-2.64,3.53-2.64S102.93,48.75,102.93,50.33Z"/><path class="cls-2" d="M105.84,46.05c0,.25-.09.37-.33.37h-1.07c-.25,0-.35-.12-.35-.37V44.31c0-.27.1-.39.35-.39h1.07c.24,0,.33.12.33.39Zm0,11c0,.27-.09.39-.33.39h-1.07c-.25,0-.35-.12-.35-.39v-8.8c0-.27.1-.39.35-.39h1.07c.24,0,.33.12.33.39Z"/><path class="cls-2" d="M114.23,52.69c0,.23-.09.35-.31.35h-5v1.77c0,.79.36,1.29,1.84,1.29s1.83-.5,1.83-1.29V54.6c0-.25.1-.37.35-.37h.94c.24,0,.35.12.35.37v.33c0,1.58-.9,2.64-3.51,2.64s-3.51-1.06-3.51-2.64v-4.6c0-1.58.93-2.64,3.55-2.64s3.47,1.06,3.47,2.64Zm-5.31-1h3.67V50.45c0-.77-.46-1.29-1.83-1.29s-1.84.52-1.84,1.29Z"/><path class="cls-2" d="M116.85,47.84c.25,0,.33.12.35.37l0,.62a4.49,4.49,0,0,1,3-1.14,2.35,2.35,0,0,1,2.6,2.47V57c0,.27-.09.39-.33.39h-1.07c-.24,0-.35-.12-.35-.39V50.6c0-.79-.35-1.27-1.36-1.27a4.12,4.12,0,0,0-2.5,1V57c0,.27-.09.39-.33.39h-1.07c-.26,0-.35-.12-.35-.39V48.21c0-.25.09-.37.35-.37Z"/><path class="cls-2" d="M131.23,50.33v.35c0,.27-.09.37-.33.37h-1c-.25,0-.34-.1-.34-.37v-.21c0-.81-.43-1.28-1.82-1.28s-1.81.47-1.81,1.28v4.32c0,.81.43,1.28,1.81,1.28s1.82-.47,1.82-1.28v-.38c0-.25.09-.37.34-.37h1c.24,0,.33.12.33.37v.52c0,1.58-.94,2.64-3.53,2.64s-3.51-1.06-3.51-2.64v-4.6c0-1.58.93-2.64,3.53-2.64S131.23,48.75,131.23,50.33Z"/><path class="cls-2" d="M139.32,52.69c0,.23-.09.35-.31.35h-5v1.77c0,.79.37,1.29,1.84,1.29s1.84-.5,1.84-1.29V54.6c0-.25.09-.37.35-.37H139c.24,0,.35.12.35.37v.33c0,1.58-.9,2.64-3.51,2.64s-3.52-1.06-3.52-2.64v-4.6c0-1.58.94-2.64,3.55-2.64s3.48,1.06,3.48,2.64Zm-5.32-1h3.68V50.45c0-.77-.46-1.29-1.84-1.29s-1.84.52-1.84,1.29Z"/><path class="cls-2" d="M145.62,50.06c0-.69-.6-1-1.74-1s-1.71.33-1.71,1v.33a1,1,0,0,0,.77.89l2.76,1c1,.37,1.65,1,1.65,1.89v1.08c0,1.2-1,2.32-3.49,2.32s-3.48-1.12-3.48-2.32v-.48c0-.23.1-.35.32-.35h1c.24,0,.31.12.31.35v.41c0,.69.7,1,1.88,1s1.87-.33,1.87-1v-.52c0-.47-.36-.72-1-.93l-2.76-1a2.19,2.19,0,0,1-1.43-1.95v-.72c0-1.19.84-2.37,3.33-2.37s3.32,1.18,3.32,2.37v.47c0,.25-.07.34-.33.34h-.95c-.22,0-.32-.09-.32-.34Z"/><path class="cls-3" d="M48.44,32.6l-5.61-3.29a.54.54,0,0,0-.81.46l0,2.94a.55.55,0,0,0,.26.47L45.34,35a.57.57,0,0,0,.54,0l2.55-1.45A.54.54,0,0,0,48.44,32.6Z"/><path class="cls-3" d="M54.42,29.48,53,26.93a.53.53,0,0,0-.93,0l-3.3,5.6a.55.55,0,0,0,.47.82l2.93,0a.52.52,0,0,0,.47-.27L54.42,30A.55.55,0,0,0,54.42,29.48Z"/><path class="cls-3" d="M34.41,19.54l6.5.05a.54.54,0,0,0,.48-.8l-1.45-2.56a.55.55,0,0,0-.47-.27l-3.56,0a.55.55,0,0,0-.47.27L34,18.73A.54.54,0,0,0,34.41,19.54Z"/><path class="cls-3" d="M41.14,19.82l0,6.5a.54.54,0,0,0,.81.47l2.55-1.45a.53.53,0,0,0,.27-.47l0-3.56a.55.55,0,0,0-.27-.47L42,19.36A.53.53,0,0,0,41.14,19.82Z"/><path class="cls-3" d="M39.37,28.39,36.84,26.9a.55.55,0,0,0-.54,0l-3.1,1.76a.52.52,0,0,0-.27.46l0,2.94a.53.53,0,0,0,.8.47l5.66-3.2A.54.54,0,0,0,39.37,28.39Z"/><path class="cls-3" d="M33.63,32.84a.54.54,0,0,0-.94,0l-1.48,2.54a.55.55,0,0,0,0,.54L33,39a.54.54,0,0,0,.47.28l2.93,0a.55.55,0,0,0,.48-.81Z"/><path class="cls-2" d="M33,23.3l-2.94,0a.56.56,0,0,0-.47.26l-1.8,3.08a.55.55,0,0,0,0,.54l1.45,2.55a.54.54,0,0,0,.94,0l3.29-5.61A.54.54,0,0,0,33,23.3Z"/><path class="cls-2" d="M33.75,24l5.61,3.29a.53.53,0,0,0,.81-.46l0-2.94a.54.54,0,0,0-.26-.47l-3.07-1.8a.52.52,0,0,0-.54,0L33.76,23.1A.54.54,0,0,0,33.75,24Z"/><path class="cls-2" d="M41.06,36.82l0-6.5a.53.53,0,0,0-.8-.47L37.74,31.3a.52.52,0,0,0-.27.46l0,3.56a.52.52,0,0,0,.27.47l2.53,1.49A.55.55,0,0,0,41.06,36.82Z"/><path class="cls-2" d="M47.78,37.09l-6.5,0a.54.54,0,0,0-.48.8l1.46,2.56a.54.54,0,0,0,.46.27l3.56,0a.55.55,0,0,0,.47-.27l1.49-2.53A.55.55,0,0,0,47.78,37.09Z"/><path class="cls-2" d="M48.56,23.8a.54.54,0,0,0,.94,0L51,21.27a.57.57,0,0,0,0-.54l-1.76-3.1a.54.54,0,0,0-.46-.27l-2.94,0a.54.54,0,0,0-.48.8Z"/><path class="cls-2" d="M48.48,24.1l-5.65,3.21a.54.54,0,0,0,0,.94l2.53,1.48a.55.55,0,0,0,.54,0L49,28a.53.53,0,0,0,.27-.47l0-2.93A.54.54,0,0,0,48.48,24.1Z"/><path class="cls-4" d="M75.55,65.26V62A.22.22,0,1,1,76,62v3.22a1.92,1.92,0,0,0,2,2.18,1.87,1.87,0,0,0,2-2.14V62a.22.22,0,1,1,.43,0v3.21a2.41,2.41,0,1,1-4.82.05Z"/><path class="cls-4" d="M81.67,63.59a.2.2,0,0,1,.2-.21.21.21,0,0,1,.21.21v.63a1.68,1.68,0,0,1,1.55-.9,1.63,1.63,0,0,1,1.71,1.76v2.45a.19.19,0,0,1-.2.21.2.2,0,0,1-.21-.21V65.16a1.31,1.31,0,0,0-1.36-1.47,1.47,1.47,0,0,0-1.49,1.53v2.31a.19.19,0,0,1-.2.21.2.2,0,0,1-.21-.21Z"/><path class="cls-4" d="M86.54,61.74a.21.21,0,0,1,.21-.21.21.21,0,0,1,.21.21v5.79a.2.2,0,0,1-.21.21.2.2,0,0,1-.21-.21Z"/><path class="cls-4" d="M87.93,65.58v0a2.21,2.21,0,1,1,4.41,0v0a2.23,2.23,0,0,1-2.21,2.25A2.2,2.2,0,0,1,87.93,65.58Zm4,0v0a1.8,1.8,0,0,0-1.76-1.86,1.77,1.77,0,0,0-1.75,1.84v0a1.79,1.79,0,0,0,1.76,1.86A1.77,1.77,0,0,0,91.89,65.58Z"/><path class="cls-4" d="M93,65.58v0a2.22,2.22,0,0,1,2.18-2.24,2.28,2.28,0,0,1,1.62.68.23.23,0,0,1,.06.15.21.21,0,0,1-.21.21.27.27,0,0,1-.15,0,1.83,1.83,0,0,0-1.32-.61,1.78,1.78,0,0,0-1.74,1.84v0a1.8,1.8,0,0,0,1.77,1.86,1.9,1.9,0,0,0,1.34-.61.19.19,0,0,1,.14-.07.22.22,0,0,1,.2.2.24.24,0,0,1-.05.13A2.2,2.2,0,0,1,93,65.58Z"/><path class="cls-4" d="M97.74,61.74a.2.2,0,0,1,.2-.21.21.21,0,0,1,.21.21v4.43l2.63-2.73a.22.22,0,0,1,.15-.06.19.19,0,0,1,.19.2.17.17,0,0,1-.07.14l-1.57,1.6,1.68,2.07a.22.22,0,0,1,.06.16.19.19,0,0,1-.2.19.23.23,0,0,1-.18-.09l-1.64-2-1,1v.87a.19.19,0,0,1-.2.21.2.2,0,0,1-.21-.21Z"/><path class="cls-4" d="M102,61.94a.25.25,0,0,1,.25-.25.26.26,0,0,1,.26.25v.15a.26.26,0,0,1-.26.25.25.25,0,0,1-.25-.25Zm0,1.65a.2.2,0,0,1,.2-.21.21.21,0,0,1,.21.21v3.94a.19.19,0,0,1-.2.21.2.2,0,0,1-.21-.21Z"/><path class="cls-4" d="M103.7,63.59a.21.21,0,0,1,.42,0v.63a1.65,1.65,0,0,1,1.54-.9,1.63,1.63,0,0,1,1.72,1.76v2.45a.19.19,0,0,1-.2.21.2.2,0,0,1-.21-.21V65.16a1.32,1.32,0,0,0-1.37-1.47,1.46,1.46,0,0,0-1.48,1.53v2.31a.2.2,0,0,1-.21.21.2.2,0,0,1-.21-.21Z"/><path class="cls-4" d="M108.52,68.48a.21.21,0,0,1-.09-.18.22.22,0,0,1,.21-.2.25.25,0,0,1,.12,0,2.74,2.74,0,0,0,1.65.54A1.54,1.54,0,0,0,112.09,67v-.63a2.14,2.14,0,0,1-1.79,1,2,2,0,0,1-2.06-2v0a2,2,0,0,1,2.06-2,2.13,2.13,0,0,1,1.79.95v-.68a.2.2,0,0,1,.2-.21.21.21,0,0,1,.21.21V67A2,2,0,0,1,112,68.5a2.16,2.16,0,0,1-1.55.57A3.25,3.25,0,0,1,108.52,68.48Zm3.59-3.12v0a1.7,1.7,0,0,0-1.77-1.63,1.59,1.59,0,0,0-1.66,1.62v0A1.63,1.63,0,0,0,110.34,67,1.71,1.71,0,0,0,112.11,65.36Z"/><path class="cls-4" d="M115.84,62a.22.22,0,0,1,.22-.22H118c1.29,0,2.19.66,2.19,1.8v0c0,1.23-1.07,1.87-2.3,1.87h-1.59v2a.22.22,0,0,1-.44,0Zm2.06,3.07c1.09,0,1.83-.57,1.83-1.45v0c0-.93-.72-1.42-1.78-1.42h-1.67v2.89Z"/><path class="cls-4" d="M120.68,65.58v0a2.21,2.21,0,1,1,4.41,0v0a2.23,2.23,0,0,1-2.21,2.25A2.19,2.19,0,0,1,120.68,65.58Zm4,0v0a1.8,1.8,0,0,0-1.76-1.86,1.77,1.77,0,0,0-1.75,1.84v0a1.79,1.79,0,0,0,1.76,1.86A1.77,1.77,0,0,0,124.64,65.58Z"/><path class="cls-4" d="M126.13,66.6V63.79h-.47a.2.2,0,0,1-.19-.19.19.19,0,0,1,.19-.18h.47v-1.2a.2.2,0,0,1,.2-.21.21.21,0,0,1,.21.21v1.2h1.35a.2.2,0,0,1,.19.19.19.19,0,0,1-.19.18h-1.35v2.77c0,.62.36.83.86.83a2,2,0,0,0,.49-.08.19.19,0,0,1,.18.19.18.18,0,0,1-.13.17,1.8,1.8,0,0,1-.61.11A1.1,1.1,0,0,1,126.13,66.6Z"/><path class="cls-4" d="M130.46,67.81a2.13,2.13,0,0,1-2.1-2.24v0a2.11,2.11,0,0,1,2-2.23,2,2,0,0,1,2,2.22.21.21,0,0,1-.2.19h-3.37a1.7,1.7,0,0,0,1.69,1.69,1.87,1.87,0,0,0,1.38-.59.22.22,0,0,1,.14-.06.2.2,0,0,1,.2.2.21.21,0,0,1-.07.14A2.18,2.18,0,0,1,130.46,67.81Zm1.45-2.45a1.58,1.58,0,0,0-1.53-1.67,1.69,1.69,0,0,0-1.59,1.67Z"/><path class="cls-4" d="M133.28,63.59a.2.2,0,0,1,.2-.21.21.21,0,0,1,.21.21v.63a1.68,1.68,0,0,1,1.55-.9A1.63,1.63,0,0,1,137,65.08v2.45a.19.19,0,0,1-.2.21.2.2,0,0,1-.21-.21V65.16a1.31,1.31,0,0,0-1.36-1.47,1.47,1.47,0,0,0-1.49,1.53v2.31a.19.19,0,0,1-.2.21.2.2,0,0,1-.21-.21Z"/><path class="cls-4" d="M138.23,66.6V63.79h-.47a.2.2,0,0,1-.19-.19.19.19,0,0,1,.19-.18h.47v-1.2a.2.2,0,0,1,.2-.21.21.21,0,0,1,.21.21v1.2H140a.2.2,0,0,1,.2.19.19.19,0,0,1-.2.18h-1.34v2.77c0,.62.36.83.86.83a1.74,1.74,0,0,0,.48-.08.19.19,0,0,1,.19.19.18.18,0,0,1-.14.17,1.69,1.69,0,0,1-.6.11A1.09,1.09,0,0,1,138.23,66.6Z"/><path class="cls-4" d="M140.93,61.94a.25.25,0,0,1,.25-.25.26.26,0,0,1,.26.25v.15a.26.26,0,0,1-.26.25.25.25,0,0,1-.25-.25Zm0,1.65a.2.2,0,0,1,.2-.21.21.21,0,0,1,.21.21v3.94a.2.2,0,0,1-.2.21.2.2,0,0,1-.21-.21Z"/><path class="cls-4" d="M142.28,66.46v0c0-.89.76-1.39,1.87-1.39a5.25,5.25,0,0,1,1.43.18v-.18c0-.87-.53-1.31-1.42-1.31a2.78,2.78,0,0,0-1.22.28.16.16,0,0,1-.09,0,.21.21,0,0,1-.19-.2.19.19,0,0,1,.12-.18,3.32,3.32,0,0,1,1.41-.32,1.85,1.85,0,0,1,1.35.47A1.62,1.62,0,0,1,146,65v2.5a.2.2,0,0,1-.2.21.19.19,0,0,1-.2-.21V67a2,2,0,0,1-1.64.82A1.5,1.5,0,0,1,142.28,66.46Zm3.3-.36v-.49a5.79,5.79,0,0,0-1.45-.19c-.91,0-1.41.4-1.41,1v0c0,.62.58,1,1.24,1A1.47,1.47,0,0,0,145.58,66.1Z"/><path class="cls-4" d="M147.18,61.74a.2.2,0,0,1,.2-.21.21.21,0,0,1,.21.21v5.79a.19.19,0,0,1-.2.21.2.2,0,0,1-.21-.21Z"/></svg>