<svg width="82" height="77" viewBox="0 0 82 77" version="1.1" xmlns="http://www.w3.org/2000/svg" xmlns:xlink="http://www.w3.org/1999/xlink">
<title>Group</title>
<desc>Created using Figma</desc>
<g id="Canvas" transform="translate(-1571 -647)">
<g id="Group">
<g id="Group">
<g id="Vector">
<use xlink:href="#path0_fill" transform="translate(1614.76 688.201)" fill="#FFFFFF"/>
</g>
<g id="Vector">
<use xlink:href="#path1_fill" transform="translate(1635.06 680.088)" fill="#FFFFFF"/>
</g>
<g id="Vector">
<use xlink:href="#path2_fill" transform="translate(1589.86 647)" fill="#FFFFFF"/>
</g>
<g id="Vector">
<use xlink:href="#path3_fill" transform="translate(1612 657.145)" fill="#FFFFFF"/>
</g>
<g id="Vector">
<use xlink:href="#path4_fill" transform="translate(1586.86 680.784)" fill="#FFFFFF"/>
</g>
<g id="Vector">
<use xlink:href="#path5_fill" transform="translate(1581.42 698.333)" fill="#FFFFFF"/>
</g>
</g>
<g id="Group">
<g id="Vector">
<use xlink:href="#path6_fill" transform="translate(1571 669.762)" fill="#FFFFFF"/>
</g>
<g id="Vector">
<use xlink:href="#path7_fill" transform="translate(1588.7 664.395)" fill="#FFFFFF"/>
</g>
<g id="Vector">
<use xlink:href="#path8_fill" transform="translate(1600.66 689.787)" fill="#FFFFFF"/>
</g>
<g id="Vector">
<use xlink:href="#path9_fill" transform="translate(1610.89 712.558)" fill="#FFFFFF"/>
</g>
<g id="Vector">
<use xlink:href="#path10_fill" transform="translate(1624.68 651.638)" fill="#FFFFFF"/>
</g>
<g id="Vector">
<use xlink:href="#path11_fill" transform="translate(1616.29 672.115)" fill="#FFFFFF"/>
</g>
</g>
</g>
</g>
<defs>
<path id="path0_fill" d="M 19.6187 10.4418L 2.45234 0.237C 1.22617 -0.381474 5.84683e-07 0.237 5.84683e-07 1.78318L 5.84683e-07 10.7511C 5.84683e-07 11.3695 0.306543 11.988 0.919627 12.2972L 10.4224 17.8635C 11.0355 18.1727 11.6486 18.1727 11.9551 17.8635L 19.9252 13.225C 20.8449 12.6065 20.8449 11.0603 19.6187 10.4418Z"/>
<path id="path1_fill" d="M 17.7078 8.96787L 13.4162 0.927711C 12.8032 -0.309237 11.2704 -0.309237 10.6574 0.927711L 0.234936 18.245C -0.378148 19.4819 0.234936 20.7189 1.76765 20.7189L 10.6574 20.7189C 11.2704 20.7189 11.8835 20.4096 12.1901 19.7912L 17.7078 10.2048C 18.0144 9.89558 18.0144 9.27711 17.7078 8.96787Z"/>
<path id="path2_fill" d="M 1.59976 11.1325L 21.525 11.1325C 22.7512 11.1325 23.6708 9.89558 23.0577 8.65863L 18.4596 0.618474C 18.153 0.309237 17.8465 0 17.2334 0L 6.19789 0C 5.58481 0 4.97172 0.309237 4.66518 0.927711L 0.373592 8.65863C -0.546034 9.89558 0.37359 11.1325 1.59976 11.1325Z"/>
<path id="path3_fill" d="M -1.16937e-06 1.91536L -1.16937e-06 22.0158C -1.16937e-06 23.2527 1.22617 24.1804 2.45234 23.5619L 10.4224 18.9234C 10.729 18.6141 11.0355 17.9957 11.0355 17.3772L 11.0355 6.24467C 11.0355 5.6262 10.729 5.00773 10.1159 4.69849L 2.45234 0.0599345C 1.53271 -0.249302 -1.16937e-06 0.678409 -1.16937e-06 1.91536Z"/>
<path id="path4_fill" d="M 19.9252 4.87048L 11.9551 0.231928C 11.3421 -0.0773092 10.729 -0.0773092 10.4224 0.231928L 0.919626 5.79819C 0.306542 6.10743 -5.84683e-07 6.7259 -5.84683e-07 7.34438L -5.84683e-07 16.3123C -5.84683e-07 17.5492 1.22617 18.4769 2.45234 17.8584L 19.9252 7.96285C 20.8449 7.03514 20.8449 5.48896 19.9252 4.87048Z"/>
<path id="path5_fill" d="M 7.58692 0.92771C 6.97383 -0.309238 5.44112 -0.309238 4.82804 0.92771L 0.229907 8.65863C -0.0766355 9.27711 -0.0766355 9.89558 0.229907 10.2048L 5.74766 19.7912C 6.05421 20.4096 6.66729 20.7189 7.28037 20.7189L 16.1701 20.7189C 17.3963 20.7189 18.3159 19.4819 17.7028 18.245L 7.58692 0.92771Z"/>
<path id="path6_fill" d="M 16.1701 0.121315L 7.28037 0.121315C 6.66729 -0.187921 6.05421 0.121315 5.74766 0.739789L 0.229907 10.3261C -0.0766355 10.9446 -0.0766355 11.5631 0.229907 11.8723L 4.82804 19.9125C 5.44112 21.1494 6.97383 21.1494 7.58692 19.9125L 17.7028 2.59521C 18.3159 1.35826 17.3963 0.121315 16.1701 0.121315Z"/>
<path id="path7_fill" d="M 0.919626 7.65362L 18.086 17.8584C 19.3121 18.4769 20.5383 17.8584 20.5383 16.3122L 20.5383 7.34438C 20.5383 6.7259 20.2318 6.10743 19.6187 5.79819L 10.4224 0.231927C 9.80935 -0.0773098 9.19626 -0.0773098 8.58318 0.231927L 0.919626 4.87048C -0.306542 5.48896 -0.306542 7.03514 0.919626 7.65362Z"/>
<path id="path8_fill" d="M 11.3421 21.8434L 11.3421 1.74304C 11.3421 0.506096 10.1159 -0.421615 8.88972 0.196859L 0.919626 4.83541C 0.306542 5.14465 -5.84683e-07 5.76312 -5.84683e-07 6.3816L -5.84683e-07 17.5141C -5.84683e-07 18.1326 0.306542 18.7511 0.919626 19.0603L 8.58318 23.6989C 9.80935 24.0081 11.3421 23.0804 11.3421 21.8434Z"/>
<path id="path9_fill" d="M 21.6531 2.35929e-06L 1.72786 2.35929e-06C 0.501688 2.35929e-06 -0.417938 1.23695 0.195146 2.4739L 4.79328 10.5141C 5.09982 11.1325 5.7129 11.4418 6.32599 11.4418L 17.3615 11.4418C 17.9746 11.4418 18.5877 11.1325 18.8942 10.5141L 23.4923 2.78313C 23.4923 1.23695 22.8793 2.35929e-06 21.6531 2.35929e-06Z"/>
<path id="path10_fill" d="M 10.311 19.7912C 10.9241 21.0281 12.4568 21.0281 13.0699 19.7912L 17.668 12.0602C 17.9746 11.4418 17.9746 10.8233 17.668 10.5141L 12.1503 0.927711C 11.8437 0.309237 11.2307 -6.86644e-16 10.6176 -6.86644e-16L 1.72786 -6.86644e-16C 0.501688 -6.86644e-16 -0.417938 1.23695 0.195146 2.4739L 10.311 19.7912Z"/>
<path id="path11_fill" d="M 18.3925 0.24263L 0.919627 10.1382C -0.306541 10.7567 -0.306541 12.3029 0.919627 12.9213L 8.58318 17.5599C 9.19626 17.8691 9.80935 17.8691 10.1159 17.5599L 19.6187 11.9936C 20.2318 11.6844 20.5383 11.0659 20.5383 10.4474L 20.5383 1.47958C 20.8449 0.242631 19.3121 -0.375844 18.3925 0.24263Z"/>
</defs>
</svg>
